<svg width="40" height="40" fill="#6E6E6E" fill-rule="evenodd" viewBox="0 0 64 64" xmlns="http://www.w3.org/2000/svg">
    <path clip-rule="evenodd" d="M42.194 0.506402C45.1282 -0.0725061 46.9981 -0.205594 48.4897 0.373373C48.7244 0.464494 48.9536 0.566701 49.1764 0.679392C50.2825 1.33041 51.1746 2.30368 51.7257 3.48011C52.0883 4.25425 52.2308 5.29056 52.1204 7.0034C52.0098 8.72013 51.6618 10.9363 51.1779 14.0074L48.3472 31.9713C47.5385 37.1032 47.167 39.3319 46.1455 41.1186C45.2566 42.6733 44.0175 43.9994 42.5265 44.9915C40.8131 46.1317 38.6146 46.6533 33.5492 47.8076L31.5289 48.268C30.2491 48.5596 29.3753 48.7574 28.7055 48.8464C28.0396 48.9349 27.7538 48.8869 27.5964 48.8257C27.1371 48.647 26.764 48.2985 26.5545 47.8524C26.4827 47.6995 26.4154 47.4177 26.4584 46.7472C26.5017 46.073 26.6396 45.1877 26.8436 43.8911L27.6379 38.8413L28.995 38.5291C31.9614 37.8468 33.4446 37.5056 34.614 36.7258C35.6043 36.0654 36.4276 35.1838 37.0189 34.1506C37.717 32.9306 37.9562 31.4275 38.4345 28.4212L39.7094 20.4307C39.9048 19.2076 40.0653 18.2022 40.1191 17.3938C40.1739 16.5682 40.1345 15.7677 39.7894 15.0304C39.301 13.9868 38.4293 13.1715 37.3554 12.754C36.5967 12.459 35.7954 12.4731 34.9753 12.583C34.1722 12.6906 33.1798 12.918 31.9725 13.1947L29.616 13.7347C24.9702 14.7988 22.2916 15.4123 20.1492 16.8356C18.336 18.0401 16.8267 19.6487 15.74 21.5349C14.4561 23.7636 14.0143 26.4758 13.2481 31.1799L13.199 31.4809L10.2927 49.3141C9.79303 52.38 9.40354 54.7699 9.27178 56.6627C9.21004 57.5498 9.20105 58.3667 9.27362 59.1259L3.36106 54.4491C1.96876 53.3475 1.27261 52.7967 0.816453 52.098C0.429607 51.5054 0.169783 50.8391 0.0533716 50.1411C-0.0838989 49.318 0.0556225 48.4413 0.334665 46.6879L4.19607 22.4246C4.99356 17.4135 5.39231 14.908 6.55616 12.8746C7.54183 11.1525 8.91432 9.6831 10.5653 8.58249C12.5146 7.28293 14.987 6.71464 19.9319 5.57807L25.9059 4.20495C26.5539 4.05599 38.4847 1.31367 39.0659 1.18174C40.2393 0.918931 41.2731 0.691898 42.194 0.506402ZM14.6936 63.2533C14.9571 63.3929 15.2297 63.5177 15.5103 63.6266C17.7099 64.4804 20.7322 63.7857 26.7767 62.3964L38.0941 59.7951L44.0681 58.4219C49.013 57.2854 51.4854 56.7171 53.4347 55.4175C55.0857 54.3169 56.4582 52.8475 57.4438 51.1254C57.6773 50.7176 57.8799 50.2908 58.0611 49.8286L58.0972 49.7885L58.1076 49.7083C58.8003 47.8815 59.1802 45.4948 59.8039 41.5754L63.6653 17.3121C63.9444 15.5587 64.0839 14.682 63.9466 13.8589C63.8302 13.1609 63.5704 12.4945 63.1835 11.902C62.7274 11.2033 62.0312 10.6525 60.6389 9.55095L54.668 4.82897C54.7354 5.5522 54.7292 6.3283 54.6751 7.16803C54.556 9.01629 54.1885 11.3485 53.7174 14.3378L53.7173 14.3384L50.876 32.3697L50.8282 32.6732C50.0819 37.4119 49.6516 40.1439 48.3679 42.3893C47.2815 44.2895 45.767 45.9102 43.9448 47.1228C41.7915 48.5556 39.0949 49.1699 34.4176 50.2354C33.2141 50.5096 29.8435 51.2777 29.0427 51.3841C28.2246 51.4928 27.4254 51.506 26.6684 51.2116C25.5965 50.7947 24.7261 49.9815 24.2372 48.9404C23.892 48.2052 23.8508 47.4069 23.9037 46.5833C23.9554 45.7771 24.1131 44.7746 24.3049 43.5552L25.5655 35.5788C26.0438 32.5725 26.283 31.0694 26.9811 29.8494C27.5724 28.8162 28.3957 27.9346 29.386 27.2742C30.5554 26.4944 32.0386 26.1532 35.005 25.4708L36.3619 25.1587L36.7194 22.9239L37.1715 20.0889C37.3792 18.7885 37.5198 17.9004 37.5647 17.224C37.6094 16.5512 37.5424 16.2686 37.4708 16.1156C37.2615 15.6683 36.8879 15.3189 36.4276 15.1399C36.2701 15.0787 35.9837 15.0307 35.3154 15.1203C34.6435 15.2104 33.7668 15.4099 32.4832 15.704L30.4851 16.1619C25.4541 17.3147 23.2706 17.8354 21.5657 18.9679C20.0822 19.9535 18.8474 21.2696 17.9583 22.8129C16.9365 24.5863 16.5559 26.7986 15.7257 31.8927L12.8304 49.6584C12.3174 52.806 11.9482 55.0795 11.8256 56.8405C11.7032 58.5982 11.8444 59.664 12.2151 60.4603C12.7553 61.6205 13.6204 62.588 14.6936 63.2533Z" />
</svg>
