<svg xmlns="http://www.w3.org/2000/svg" width="14" height="14" class="yc-icon" fill="currentColor" stroke="none"
     aria-hidden="true">
    <svg viewBox="0 0 16 16" xmlns="http://www.w3.org/2000/svg">
        <path fill="#9AA7B0" fill-opacity=".8" fill-rule="evenodd"
              d="M13 0.5H3C1.61929 0.5 0.5 1.61929 0.5 3V13C0.5 14.3807 1.61929 15.5 3 15.5H13C14.3807 15.5 15.5 14.3807 15.5 13V3C15.5 1.61929 14.3807 0.5 13 0.5ZM4 8C4 7.2582 4.20193 6.56355 4.55383 5.96804L4.55428 5.96849C4.89844 5.38605 5.38605 4.89844 5.96849 4.55428L5.96804 4.55383C6.56355 4.20193 7.2582 4 8 4C8.74203 4 9.43688 4.20206 10.0325 4.55416L10.0324 4.55428C10.2794 4.70023 10.5094 4.87197 10.7186 5.06581C11.5067 5.79638 12 6.84059 12 8C12 10.2091 10.2091 12 8 12C6.80915 12 5.73983 11.4796 5.00707 10.6538C5.28347 10.9654 5.6078 11.2335 5.96849 11.4467L4.46492 12.9502C4.0744 13.3408 3.44123 13.3408 3.05071 12.9502C2.66018 12.5597 2.66018 11.9266 3.05071 11.536L4.5542 10.0326C4.67315 10.2338 4.80923 10.4237 4.96043 10.6003C4.80926 10.4237 4.67321 10.2338 4.55428 10.0325L4.5542 10.0326C4.20208 9.43693 4 8.74206 4 8ZM10.7186 5.06581C11.0026 5.32906 11.2484 5.63305 11.4466 5.96849L12.9502 4.46492C13.3407 4.0744 13.3407 3.44123 12.9502 3.05071C12.5597 2.66018 11.9265 2.66018 11.536 3.05071L10.0325 4.55416C10.2795 4.70015 10.5094 4.87194 10.7186 5.06581ZM5.96804 4.55383L4.46492 3.05071C4.0744 2.66018 3.44123 2.66018 3.05071 3.05071C2.66018 3.44123 2.66018 4.0744 3.05071 4.46492L4.55383 5.96804C4.89799 5.3856 5.3856 4.89799 5.96804 4.55383ZM8 5.5C6.61931 5.5 5.5 6.61931 5.5 8C5.5 9.38069 6.61931 10.5 8 10.5C9.38069 10.5 10.5 9.38069 10.5 8C10.5 6.61931 9.38069 5.5 8 5.5ZM9 8C9 8.5523 8.5523 9 8 9C7.4477 9 7 8.5523 7 8C7 7.4477 7.4477 7 8 7C8.5523 7 9 7.4477 9 8ZM11.4466 10.0325C11.1025 10.6149 10.6149 11.1025 10.0324 11.4467L11.536 12.9502C11.9265 13.3408 12.5597 13.3408 12.9502 12.9502C13.3407 12.5597 13.3407 11.9266 12.9502 11.536L11.4466 10.0325Z"></path>
    </svg>
</svg>